<?xml version="1.0" encoding="iso-8859-1"?>
<!-- Generator: Adobe Illustrator 19.0.0, SVG Export Plug-In . SVG Version: 6.00 Build 0)  -->
<svg version="1.1" id="Capa_1" xmlns="http://www.w3.org/2000/svg" xmlns:xlink="http://www.w3.org/1999/xlink" x="0px" y="0px"
	 viewBox="0 0 512 512" style="enable-background:new 0 0 512 512;" xml:space="preserve">
<g>
	<g>
		<path d="M313.103,69.406c-3.124-2.721-7.861-2.396-10.582,0.726c-1.37,1.573-3.347,2.475-5.424,2.475
			c-2.076,0-4.053-0.901-5.423-2.475c-2.723-3.122-7.458-3.447-10.582-0.726c-3.122,2.721-3.448,7.459-0.727,10.582
			c4.221,4.842,10.32,7.619,16.733,7.619c6.414,0,12.513-2.777,16.732-7.619C316.552,76.865,316.226,72.127,313.103,69.406z"/>
	</g>
</g>
<g>
	<g>
		<path d="M339.116,60.277c-4.143,0-7.5,3.357-7.5,7.5v6.975c0,4.143,3.357,7.5,7.5,7.5s7.5-3.357,7.5-7.5v-6.975
			C346.616,63.635,343.259,60.277,339.116,60.277z"/>
	</g>
</g>
<g>
	<g>
		<path d="M338.196,227.049H256c-4.142,0-7.5,3.357-7.5,7.5s3.358,7.5,7.5,7.5h82.196c4.143,0,7.5-3.357,7.5-7.5
			S342.339,227.049,338.196,227.049z"/>
	</g>
</g>
<g>
	<g>
		<path d="M255.08,60.277c-4.142,0-7.5,3.357-7.5,7.5v6.975c0,4.143,3.358,7.5,7.5,7.5c4.142,0,7.5-3.357,7.5-7.5v-6.975
			C262.58,63.635,259.222,60.277,255.08,60.277z"/>
	</g>
</g>
<g>
	<g>
		<path d="M412.766,144.799V35.205C412.766,15.793,396.973,0,377.561,0H134.439c-19.412,0-35.205,15.793-35.205,35.205v9.896
			c0,4.143,3.358,7.5,7.5,7.5c4.142,0,7.5-3.357,7.5-7.5v-9.896c0-11.141,9.064-20.205,20.205-20.205H377.56
			c11.142,0,20.205,9.065,20.205,20.205v109.594c0,3.354-2.729,6.082-6.082,6.082H181.277c0.008-0.202,0.031-0.4,0.031-0.604V59.66
			c0-8.637-7.026-15.663-15.663-15.663h-11.214c-8.637,0-15.663,7.026-15.663,15.663v90.617c0,0.204,0.023,0.402,0.031,0.604
			h-18.482c-3.354,0-6.082-2.729-6.082-6.082v-64.9c0-4.143-3.358-7.5-7.5-7.5c-4.142,0-7.5,3.357-7.5,7.5v64.899
			c0,8.981,5.655,16.647,13.582,19.679v10.222c-7.927,3.032-13.582,10.698-13.582,19.679v259.796
			c0,19.412,15.793,35.205,35.205,35.205h10.784v6.445c0,8.919,7.256,16.176,16.175,16.176h24.819
			c8.919,0,16.175-7.257,16.175-16.176v-6.445h107.213v6.445c0,8.919,7.257,16.176,16.176,16.176h24.819
			c8.919,0,16.176-7.257,16.176-16.176v-6.445h10.783c19.412,0,35.205-15.793,35.205-35.205V405.36c0-4.143-3.357-7.5-7.5-7.5
			s-7.5,3.357-7.5,7.5v23.337H114.234V194.378c0-3.354,2.729-6.082,6.082-6.082h18.482c-0.008,0.202-0.031,0.4-0.031,0.604v146.094
			c0,8.637,7.026,15.663,15.663,15.663h11.214c8.637,0,15.663-7.026,15.663-15.663V188.899c0-0.204-0.023-0.402-0.031-0.604h210.406
			c3.353,0,6.082,2.729,6.082,6.082v176.249c0,4.142,3.357,7.5,7.5,7.5s7.5-3.358,7.5-7.5V194.378
			c0-8.981-5.654-16.647-13.582-19.679v-10.221C407.111,161.445,412.766,153.78,412.766,144.799z M187.394,495.824
			c-0.001,0.648-0.528,1.176-1.176,1.176h-24.819c-0.648,0-1.175-0.527-1.175-1.176v-6.445h27.17V495.824z M351.777,495.824
			c0,0.648-0.527,1.176-1.176,1.176h-24.819c-0.648,0-1.176-0.527-1.176-1.176v-6.445h27.171V495.824z M397.766,443.696v10.478
			c0,11.142-9.064,20.205-20.205,20.205H134.439c-11.141,0-20.205-9.064-20.205-20.205v-10.478H397.766z M153.768,59.66
			c0-0.365,0.297-0.663,0.663-0.663h11.214c0.366,0,0.663,0.298,0.663,0.663v90.617c0,0.333-0.271,0.604-0.603,0.604h-11.334
			c-0.333,0-0.603-0.271-0.603-0.604V59.66z M166.308,334.993c0,0.365-0.297,0.663-0.663,0.663h-11.214
			c-0.366,0-0.663-0.298-0.663-0.663V188.899c0-0.333,0.271-0.604,0.603-0.604h11.334c0.332,0,0.603,0.271,0.603,0.604V334.993z
			 M384.183,173.296H127.816v-7.415h256.367V173.296z"/>
	</g>
</g>
<g>
	<g>
		<path d="M329.872,256.399h-65.548c-8.726,0-15.824,7.099-15.824,15.824v61.433c0,8.725,7.099,15.824,15.824,15.824h65.548
			c8.726,0,15.824-7.099,15.824-15.824v-61.433C345.696,263.498,338.598,256.399,329.872,256.399z M311.401,271.399l-4.465,25.96
			c-0.12,0.702-0.725,1.211-1.438,1.211h-16.8c-0.713,0-1.318-0.51-1.438-1.211l-4.465-25.96H311.401z M330.696,333.656
			c0,0.454-0.37,0.824-0.824,0.824h-65.548c-0.454,0-0.824-0.37-0.824-0.824v-61.433c0-0.454,0.37-0.824,0.824-0.824h3.25
			l4.902,28.504c1.364,7.919,8.186,13.667,16.222,13.667h16.8c8.037,0,14.858-5.748,16.221-13.668l4.902-28.503h3.251
			c0.454,0,0.824,0.37,0.824,0.824V333.656z"/>
	</g>
</g>
<g>
</g>
<g>
</g>
<g>
</g>
<g>
</g>
<g>
</g>
<g>
</g>
<g>
</g>
<g>
</g>
<g>
</g>
<g>
</g>
<g>
</g>
<g>
</g>
<g>
</g>
<g>
</g>
<g>
</g>
</svg>
